<?xml version="1.0" standalone="no"?>
<!DOCTYPE svg PUBLIC "-//W3C//DTD SVG 20010904//EN"
 "http://www.w3.org/TR/2001/REC-SVG-20010904/DTD/svg10.dtd">
<svg version="1.0" xmlns="http://www.w3.org/2000/svg"
 width="566.000000pt" height="566.000000pt" viewBox="0 0 566.000000 566.000000"
 preserveAspectRatio="xMidYMid meet">
<metadata>
Created by potrace 1.11, written by Peter Selinger 2001-2013
</metadata>
<g transform="translate(0.000000,566.000000) scale(0.100000,-0.100000)"
fill="#000000" stroke="none">
<path d="M1705 5631 c-94 -53 -115 -66 -115 -73 0 -5 -6 -8 -13 -8 -8 0 -24
-9 -37 -20 -13 -11 -26 -20 -29 -20 -7 0 -135 -123 -176 -171 -51 -57 -95
-116 -95 -127 0 -5 -7 -15 -15 -22 -8 -7 -29 -39 -47 -71 -17 -33 -35 -59 -40
-59 -5 0 -6 -5 -3 -10 3 -6 -3 -23 -14 -39 -11 -15 -18 -31 -14 -35 3 -3 2 -6
-4 -6 -9 0 -21 -23 -27 -52 0 -3 -4 -10 -9 -14 -4 -4 -7 -16 -7 -26 0 -10 -4
-18 -8 -18 -5 0 -9 -6 -9 -12 -2 -17 -42 -138 -54 -160 -5 -10 -9 -39 -9 -65
-1 -27 -7 -59 -15 -73 -8 -14 -14 -34 -14 -45 0 -18 1 -18 9 3 16 39 22 24 13
-35 -16 -113 -4 -453 17 -493 4 -8 11 -40 15 -70 4 -30 10 -64 12 -75 3 -11 8
-40 10 -65 2 -25 7 -52 10 -60 3 -8 7 -19 9 -25 1 -5 8 -23 15 -40 7 -16 13
-34 14 -40 2 -16 -17 -55 -27 -55 -5 0 -8 -6 -7 -12 1 -7 0 -20 -4 -28 -15
-39 -28 -122 -22 -138 3 -9 11 -51 16 -92 13 -97 21 -141 36 -180 4 -8 7 -22
8 -30 2 -18 13 -48 26 -72 5 -10 9 -25 9 -34 0 -9 6 -28 14 -42 7 -15 26 -53
41 -84 16 -32 32 -58 37 -58 4 0 8 -5 8 -10 0 -14 51 -59 67 -60 6 0 13 -5 15
-11 2 -6 27 -14 55 -16 42 -5 53 -10 64 -32 8 -14 20 -30 26 -34 7 -4 13 -13
13 -18 0 -6 -4 -8 -9 -5 -11 7 86 -186 123 -244 69 -108 119 -178 156 -219 22
-25 40 -48 40 -53 0 -5 4 -6 10 -3 5 3 10 1 10 -6 0 -14 46 -59 61 -59 5 0 9
-7 9 -15 0 -8 4 -15 9 -15 5 0 28 -17 51 -39 41 -38 41 -39 39 -101 -2 -46 -7
-68 -21 -82 -10 -10 -16 -18 -13 -18 3 0 -3 -10 -15 -22 -11 -12 -20 -25 -20
-30 0 -4 -16 -24 -35 -44 -19 -19 -35 -40 -35 -45 0 -5 -7 -9 -15 -9 -8 0 -15
-4 -15 -10 0 -17 -142 -151 -222 -208 -43 -31 -78 -59 -78 -64 0 -5 -4 -7 -8
-4 -5 3 -18 -4 -30 -14 -12 -11 -26 -20 -32 -20 -5 0 -10 -4 -10 -10 0 -5 -16
-16 -35 -24 -19 -8 -35 -20 -35 -27 0 -6 -7 -9 -15 -5 -8 3 -15 2 -15 -3 0 -4
-11 -13 -26 -19 -31 -15 -194 -144 -194 -155 0 -4 -16 -21 -35 -38 -19 -17
-32 -35 -29 -40 3 -5 0 -9 -6 -9 -7 0 -9 -7 -6 -16 4 -11 2 -15 -8 -11 -22 8
-26 -15 -7 -37 15 -18 15 -18 -6 -7 -32 16 -41 14 -15 -5 24 -17 21 -34 -6
-33 -14 0 -14 2 2 8 11 4 15 10 10 14 -6 3 -16 2 -24 -3 -11 -7 -11 -11 -1
-24 15 -18 1 -22 -16 -5 -8 8 -11 6 -10 -7 1 -11 -3 -18 -10 -17 -6 1 -10 -4
-9 -12 3 -21 16 -31 16 -12 0 22 19 32 33 18 9 -9 8 -11 -5 -6 -12 5 -18 2
-18 -6 0 -8 -8 -23 -17 -34 -13 -16 -15 -17 -10 -2 4 9 2 17 -3 17 -6 0 -10
-6 -10 -14 0 -8 -7 -16 -15 -20 -8 -3 -15 -10 -15 -16 0 -6 4 -9 8 -6 5 3 9
-1 9 -8 0 -8 -6 -12 -14 -9 -7 3 -13 10 -13 16 0 6 -3 7 -6 4 -4 -4 -2 -12 4
-20 8 -10 6 -13 -9 -14 -12 -1 -17 2 -13 10 4 7 3 8 -2 4 -5 -5 -10 -13 -10
-18 -1 -5 -2 -14 -3 -20 0 -5 -5 -7 -11 -4 -5 3 -10 1 -10 -5 0 -6 6 -10 13
-9 24 3 37 -1 37 -12 0 -8 -5 -8 -15 1 -12 10 -15 10 -15 0 0 -7 -6 -10 -13
-7 -9 3 -12 -4 -11 -27 3 -29 11 -61 59 -228 7 -25 19 -56 25 -68 6 -12 13
-29 15 -38 2 -9 16 -46 33 -82 16 -36 40 -89 53 -117 l24 -53 2237 0 2238 0 0
815 0 814 -30 16 c-16 8 -33 16 -37 16 -15 3 -38 11 -55 20 -10 5 -22 9 -28 9
-5 0 -40 15 -77 32 -38 18 -70 33 -73 33 -3 0 -49 21 -102 47 -53 25 -111 49
-127 53 -17 4 -31 11 -31 16 0 5 -7 9 -16 9 -14 0 -47 13 -144 57 -19 9 -43
20 -52 24 -10 5 -26 9 -35 9 -10 0 -31 7 -46 15 -15 8 -45 17 -65 21 -20 4
-41 10 -47 14 -5 4 -25 11 -43 15 -18 3 -46 13 -63 22 -16 8 -35 16 -42 17
-11 3 -34 11 -67 24 -8 3 -19 6 -25 7 -28 3 -115 38 -125 51 -7 7 -18 14 -25
14 -17 0 -105 74 -226 190 -147 140 -178 168 -184 161 -4 -3 -11 2 -16 12 -6
9 -14 17 -19 17 -6 0 -21 10 -35 22 -23 19 -25 27 -20 78 5 61 18 104 33 114
6 3 8 15 5 27 -5 18 -2 19 23 13 16 -4 33 -10 38 -15 5 -4 18 -4 30 1 11 5 32
11 46 14 32 7 141 110 165 156 9 19 23 42 30 50 7 8 24 51 39 95 15 44 32 88
37 97 5 10 9 29 9 43 0 14 7 42 15 61 8 20 18 65 21 100 4 36 11 67 15 70 12
7 11 261 0 266 -6 2 -11 14 -13 28 -4 24 -27 73 -28 57 0 -5 -7 -1 -16 8 -14
13 -15 23 -7 53 15 54 18 99 18 267 0 201 -5 269 -22 340 -9 32 -16 68 -18 80
-1 11 -8 40 -15 65 -7 25 -14 54 -16 66 -1 11 -9 38 -18 58 -9 21 -16 48 -16
60 0 12 -7 31 -15 42 -8 10 -15 26 -15 35 0 21 -46 108 -71 135 -10 11 -19 25
-19 30 0 16 -24 64 -32 64 -5 0 -8 5 -8 10 0 12 -41 73 -52 78 -5 2 -8 9 -8
15 -1 15 -35 57 -47 57 -5 0 -14 13 -20 30 -6 16 -20 33 -30 37 -33 13 -103
64 -103 76 0 17 -89 106 -124 124 -17 9 -49 30 -71 47 -22 17 -50 37 -62 44
-18 9 -193 12 -780 12 l-758 0 -50 -29z m-215 -171 c0 -5 -4 -10 -9 -10 -6 0
-22 -11 -37 -25 -15 -14 -29 -23 -32 -21 -5 5 59 65 71 66 4 0 7 -4 7 -10z
m-645 -4810 c3 -6 -1 -7 -9 -4 -18 7 -21 14 -7 14 6 0 13 -4 16 -10z"/>
<path d="M199 546 c9 -11 9 -15 -1 -19 -7 -3 -3 -4 9 -4 21 1 21 2 6 19 -19
21 -31 24 -14 4z"/>
<path d="M190 488 c0 -12 1 -19 3 -17 1 2 9 12 16 22 12 14 11 17 -3 17 -10 0
-16 -8 -16 -22z"/>
</g>
</svg>
