<?xml version="1.0" standalone="no"?>
<!DOCTYPE svg PUBLIC "-//W3C//DTD SVG 20010904//EN"
 "http://www.w3.org/TR/2001/REC-SVG-20010904/DTD/svg10.dtd">
<svg version="1.0" xmlns="http://www.w3.org/2000/svg"
 width="560.000000pt" height="560.000000pt" viewBox="0 0 560.000000 560.000000"
 preserveAspectRatio="xMidYMid meet">
<metadata>
Created by potrace 1.11, written by Peter Selinger 2001-2013
</metadata>
<g transform="translate(0.000000,560.000000) scale(0.100000,-0.100000)"
fill="#000000" stroke="none">
<path d="M2670 5073 c-74 -8 -268 -45 -325 -63 -67 -20 -165 -65 -209 -95 -69
-47 -201 -185 -257 -270 -109 -164 -196 -366 -234 -546 -33 -153 -28 -354 9
-449 5 -11 -3 -19 -28 -28 -40 -15 -99 -70 -124 -116 -25 -46 -25 -446 -1
-491 26 -46 74 -92 116 -110 58 -25 68 -31 68 -41 3 -38 21 -122 42 -189 90
-286 268 -507 525 -652 52 -29 68 -43 68 -60 0 -18 -7 -23 -37 -28 -270 -42
-409 -94 -506 -191 -45 -46 -84 -122 -93 -186 -6 -48 -6 -48 -80 -83 -177 -85
-388 -260 -514 -425 -196 -259 -290 -548 -290 -897 l0 -153 2000 0 2001 0 -2
158 c-2 292 -61 521 -190 745 -134 230 -378 458 -611 570 -75 36 -76 37 -83
83 -16 107 -78 194 -185 258 -91 56 -206 89 -412 121 -32 5 -38 10 -38 30 0
15 7 26 20 30 79 25 311 218 398 331 100 130 177 318 218 532 3 13 12 25 22
28 40 12 88 41 115 69 60 63 62 71 62 305 0 186 -2 219 -18 247 -25 46 -84
100 -123 113 -27 9 -32 15 -25 28 14 27 31 155 31 236 0 225 -77 511 -191 711
-55 96 -179 226 -274 286 -128 81 -316 156 -441 174 -21 4 -50 9 -64 11 -31 7
-291 11 -340 7z"/>
</g>
</svg>
